<?xml version="1.0" standalone="no"?>
<!DOCTYPE svg PUBLIC "-//W3C//DTD SVG 20010904//EN"
 "http://www.w3.org/TR/2001/REC-SVG-20010904/DTD/svg10.dtd">
<svg version="1.0" xmlns="http://www.w3.org/2000/svg"
 width="1082.000000pt" height="1082.000000pt" viewBox="0 0 1082.000000 1082.000000"
 preserveAspectRatio="xMidYMid meet">

<g transform="translate(0.000000,1082.000000) scale(0.100000,-0.100000)"
fill="#000000" stroke="none">
<path d="M5095 10773 c-929 -61 -1774 -333 -2559 -825 -521 -327 -1044 -810
-1419 -1313 -605 -809 -953 -1713 -1053 -2735 -21 -211 -24 -718 -6 -915 86
-905 341 -1677 795 -2405 228 -365 451 -645 767 -961 820 -821 1877 -1351
3018 -1514 313 -44 402 -50 777 -49 442 0 679 23 1065 100 798 159 1609 535
2250 1042 1099 870 1821 2135 1999 3502 37 282 45 412 45 720 -1 608 -83 1125
-269 1685 -329 991 -950 1875 -1775 2526 -847 669 -1879 1065 -2968 1139 -140
9 -544 11 -667 3z m755 -173 c972 -82 1904 -438 2685 -1026 647 -486 1171
-1115 1534 -1843 298 -595 479 -1252 531 -1920 15 -198 12 -648 -5 -844 -122
-1385 -784 -2654 -1850 -3546 -1158 -968 -2682 -1384 -4180 -1140 -1434 234
-2704 1061 -3509 2287 -140 212 -189 299 -316 557 -293 594 -458 1186 -516
1855 -22 255 -15 792 15 1030 78 637 242 1182 520 1738 491 981 1291 1788
2272 2295 635 327 1327 517 2069 567 151 10 578 5 750 -10z"/>
<path d="M5215 10404 c-952 -47 -1820 -330 -2587 -845 -1137 -763 -1915 -1966
-2142 -3314 -53 -315 -60 -423 -60 -830 0 -407 7 -515 60 -830 173 -1025 654
-1955 1394 -2696 398 -398 806 -692 1312 -944 1299 -648 2815 -695 4158 -130
837 352 1570 938 2117 1690 434 597 741 1334 867 2080 52 310 60 424 61 820 0
379 -6 473 -46 745 -208 1392 -996 2634 -2169 3417 -690 460 -1474 739 -2300
817 -157 15 -536 26 -665 20z m523 -94 c1197 -85 2293 -581 3132 -1420 400
-399 703 -821 945 -1315 508 -1038 635 -2212 360 -3331 -293 -1188 -1017
-2223 -2035 -2904 -668 -448 -1415 -717 -2230 -805 -155 -17 -690 -32 -734
-21 -25 6 -26 10 -26 68 l0 61 25 -23 c16 -15 41 -24 74 -28 45 -4 53 -2 80
25 25 25 30 40 36 104 4 41 5 141 3 222 l-3 149 -28 24 c-40 34 -105 33 -146
-2 -29 -24 -31 -24 -31 -6 0 26 -18 32 -94 32 l-63 0 -6 -122 c-4 -66 -7 -204
-7 -305 l0 -183 -29 0 c-17 0 -83 7 -148 15 -1105 143 -2083 618 -2859 1390
-402 400 -707 825 -954 1330 -513 1049 -633 2248 -340 3383 277 1068 913 2018
1800 2686 426 321 894 567 1401 736 371 124 801 210 1199 239 169 12 510 13
678 1z m-520 -9406 c3 -188 -4 -228 -41 -232 -21 -3 -28 2 -33 24 -8 30 3 342
12 356 3 5 18 8 32 6 l27 -3 3 -151z"/>
<path d="M3014 8630 c-139 -18 -296 -83 -390 -163 -57 -49 -120 -134 -163
-219 -20 -40 -53 -98 -72 -128 -48 -74 -75 -135 -99 -222 -138 -491 -29 -1366
341 -2723 77 -280 166 -588 284 -980 160 -530 285 -987 285 -1041 0 -11 -12
-55 -26 -99 -31 -95 -76 -147 -167 -196 -155 -82 -327 -33 -491 141 -90 96
-94 105 -54 126 119 60 187 132 223 234 35 98 13 339 -42 463 -76 171 -260
195 -392 52 -70 -77 -95 -142 -99 -265 -4 -135 26 -258 98 -404 214 -431 576
-603 858 -409 144 99 258 290 297 498 37 193 -3 470 -131 919 -50 174 -108
363 -410 1321 -182 580 -279 942 -343 1280 -61 322 -81 511 -81 764 0 609 210
924 631 948 179 10 328 -43 458 -164 115 -105 195 -232 240 -377 30 -97 29
-100 -29 -115 -229 -59 -435 -479 -328 -673 29 -55 95 -91 151 -85 20 3 37 3
37 0 0 -3 -28 -34 -62 -69 l-62 -65 -116 7 c-140 8 -247 34 -318 77 -98 58
-226 217 -318 393 -54 106 -74 129 -102 120 -31 -10 -42 -58 -42 -182 0 -260
90 -490 251 -638 35 -33 83 -68 107 -79 60 -26 166 -25 252 3 172 56 385 225
528 418 72 98 204 353 226 439 23 89 21 199 -5 248 -11 22 -33 90 -49 152
-117 463 -470 742 -876 693z m800 -891 c4 -23 4 -67 0 -99 l-6 -56 -87 23
c-47 13 -96 22 -108 20 -21 -4 -21 -2 8 35 37 46 82 82 129 102 51 22 57 20
64 -25z m-244 -180 c0 -7 39 -54 86 -105 96 -105 95 -103 25 -167 -79 -71
-147 -88 -177 -42 -18 28 -21 129 -4 185 26 90 70 171 70 129z m-1215 -349
c30 -275 99 -625 197 -990 57 -215 74 -273 213 -715 377 -1204 419 -1340 469
-1540 65 -261 92 -476 75 -607 -5 -45 -13 -86 -16 -92 -4 -5 -21 51 -40 125
-47 189 -97 364 -240 839 -429 1432 -629 2300 -668 2905 -3 50 -8 124 -11 165
-10 128 3 73 21 -90z m488 -114 c31 -35 84 -82 117 -104 97 -65 161 -85 344
-108 l48 -6 -37 -25 c-20 -13 -67 -39 -103 -56 -58 -28 -78 -32 -148 -32 -78
0 -82 1 -130 38 -61 47 -121 122 -163 204 -35 70 -81 220 -81 265 0 27 4 24
48 -41 26 -38 73 -99 105 -135z m-324 -3271 c72 -82 104 -345 57 -457 -26 -62
-89 -114 -197 -166 -20 -9 -92 164 -115 275 -27 128 -6 253 53 318 43 48 75
65 123 65 42 0 52 -4 79 -35z"/>
<path d="M4500 8085 l0 -385 145 0 145 0 2 165 3 164 95 -164 95 -165 173 0
c136 0 172 3 166 13 -4 6 -67 98 -141 204 l-133 192 129 178 128 178 -155 3
c-86 1 -161 1 -167 -2 -6 -2 -51 -71 -101 -152 l-89 -149 -3 153 -3 152 -144
0 -145 0 0 -385z"/>
<path d="M5408 8085 l-3 -385 245 0 c135 0 274 5 310 11 79 12 154 52 179 93
61 101 11 240 -95 268 -44 12 -59 28 -26 28 32 0 89 48 112 95 41 84 10 181
-74 230 -60 35 -148 45 -413 45 l-233 0 -2 -385z m420 212 c27 -13 38 -50 26
-86 -11 -31 -58 -50 -126 -50 l-48 -1 0 74 c0 74 0 75 28 78 38 5 93 -1 120
-15z m9 -303 c42 -26 42 -91 0 -119 -13 -8 -51 -16 -88 -17 l-64 -3 -3 77 c-3
73 -2 77 20 81 36 6 111 -4 135 -19z"/>
<path d="M6380 8233 c-46 -131 -107 -304 -135 -385 l-52 -148 147 0 147 0 24
83 24 82 117 3 117 3 27 -86 26 -85 154 0 154 0 -46 128 c-24 70 -86 243 -136
385 l-92 257 -197 0 -196 0 -83 -237z m350 -180 c0 -9 -20 -13 -73 -13 -41 0
-76 3 -79 6 -3 3 12 60 35 127 l40 122 39 -115 c21 -63 38 -120 38 -127z"/>
<path d="M7170 8085 l0 -385 145 0 144 0 3 141 3 141 98 1 97 2 0 -142 0 -143
145 0 145 0 0 385 0 385 -145 0 -145 0 0 -135 0 -135 -100 0 -100 0 0 135 0
135 -145 0 -145 0 0 -385z"/>
<path d="M8020 8355 l0 -115 130 0 130 0 0 -270 0 -270 145 0 145 0 0 270 0
270 130 0 130 0 0 115 0 115 -405 0 -405 0 0 -115z"/>
<path d="M5340 6705 c0 -302 -2 -346 -15 -352 -9 -3 -25 -22 -35 -43 -23 -44
-63 -183 -51 -175 5 2 9 -43 10 -102 2 -133 13 -179 57 -220 19 -17 34 -36 34
-41 0 -4 77 -46 170 -92 94 -46 170 -87 170 -90 0 -3 -26 -18 -57 -34 -84 -40
-266 -165 -351 -238 -143 -125 -273 -290 -379 -480 l-49 -87 -157 134 -157
133 -75 7 c-94 9 -117 3 -165 -43 l-39 -37 227 -327 c125 -180 232 -327 239
-328 6 0 14 -6 17 -12 5 -10 7 -10 12 0 3 6 11 12 17 12 7 0 37 35 67 77 53
74 166 193 202 214 12 7 7 -8 -16 -48 -144 -246 -199 -577 -141 -858 53 -260
170 -470 375 -676 225 -226 499 -370 836 -441 95 -20 139 -23 334 -23 199 0
238 3 340 24 608 126 1056 523 1197 1060 32 119 42 348 23 481 -17 116 -80
305 -137 409 l-47 86 50 -42 c105 -91 154 -141 212 -218 33 -44 69 -87 79 -96
18 -15 21 -15 41 1 12 10 121 161 243 336 166 239 219 322 212 333 -5 8 -26
29 -47 45 -29 24 -46 30 -84 30 -119 -1 -128 -5 -292 -145 l-153 -130 -55 103
c-162 306 -373 552 -603 703 -57 38 -108 72 -113 77 -5 4 66 43 157 87 92 44
168 85 168 91 1 5 2 13 3 18 1 4 13 19 28 33 34 34 47 102 48 249 1 129 -14
200 -54 259 l-26 37 0 337 c0 185 -4 337 -9 337 -4 0 -147 -61 -317 -135
l-308 -135 -56 54 c-248 242 -630 247 -877 11 l-67 -64 -301 130 c-165 72
-308 136 -317 141 -17 8 -18 -11 -18 -337z m1285 178 c80 -25 139 -59 195
-110 l52 -48 -192 -84 c-106 -47 -198 -84 -205 -84 -6 0 -97 37 -203 83 l-192
84 28 29 c15 17 53 47 85 68 128 83 291 107 432 62z m-695 -206 l485 -212 3
-557 2 -557 -152 73 c-84 41 -297 144 -473 231 -317 155 -320 157 -295 173
132 85 177 244 109 381 -32 63 -84 112 -141 133 l-28 10 0 269 c0 148 1 269 3
269 1 0 220 -96 487 -213z m1580 -55 l0 -269 -38 -11 c-55 -17 -117 -74 -148
-139 -65 -132 -11 -307 115 -373 l36 -18 -468 -231 c-258 -127 -471 -231 -473
-231 -2 0 -3 251 -2 557 l3 556 485 213 c267 117 486 213 488 213 1 1 2 -120
2 -267z m-2003 -442 c55 -79 33 -197 -44 -248 l-23 -14 0 162 0 162 23 -14
c12 -8 32 -30 44 -48z m2003 -105 c0 -183 0 -184 -62 -118 -69 73 -64 192 11
256 18 15 37 27 42 27 5 0 9 -71 9 -165z m-1493 -646 l208 -101 -130 -33 c-72
-17 -177 -49 -233 -70 -260 -95 -576 -291 -858 -531 -96 -81 -103 -72 -40 53
125 250 313 464 541 618 68 45 284 165 299 165 2 0 98 -46 213 -101z m1263 38
c169 -100 310 -229 437 -399 122 -162 268 -423 261 -466 -2 -17 -25 -1 -143
100 -431 371 -702 529 -1045 609 l-55 13 210 102 c135 66 217 100 230 97 11
-3 58 -28 105 -56z m-862 -524 l-3 -258 -342 -3 c-189 -1 -343 1 -343 5 0 12
62 117 103 173 57 78 184 199 250 239 103 61 212 97 300 100 l37 1 -2 -257z
m237 211 c153 -61 310 -207 420 -390 19 -32 35 -64 35 -71 0 -10 -58 -13 -290
-13 l-290 0 0 256 0 256 33 -7 c17 -4 59 -18 92 -31z m-795 -105 c-79 -79
-169 -205 -226 -313 l-29 -56 -172 0 c-95 0 -173 3 -173 6 0 16 61 81 134 143
145 123 306 216 476 277 36 13 66 23 67 24 2 0 -33 -36 -77 -81z m1258 -4
c107 -51 168 -87 257 -154 79 -59 216 -192 209 -202 -3 -5 -81 -9 -174 -9
l-168 0 -37 68 c-66 120 -128 205 -214 294 l-84 88 57 -20 c32 -11 101 -40
154 -65z m-2606 -149 c14 -12 87 -73 161 -136 l136 -115 6 -57 c7 -55 5 -60
-30 -108 -20 -27 -40 -50 -43 -50 -7 1 -334 472 -340 490 -6 18 81 -1 110 -24z
m3972 -43 c-27 -43 -316 -457 -324 -466 -4 -5 -24 14 -44 42 -34 46 -37 55
-34 108 l3 58 160 137 c158 135 172 144 229 147 l28 1 -18 -27z m-2924 -280
c0 -5 -12 -42 -25 -82 -35 -103 -73 -296 -81 -413 l-7 -98 -245 0 -245 0 7 69
c14 144 69 302 158 459 l42 72 198 0 c109 0 198 -3 198 -7z m860 -293 l0 -300
-435 0 c-341 0 -435 3 -435 13 1 43 23 215 36 282 16 79 68 254 85 288 9 16
37 17 379 17 l370 0 0 -300z m770 243 c52 -138 100 -374 100 -490 l0 -53 -380
0 -380 0 0 300 0 300 319 0 320 0 21 -57z m535 -18 c82 -140 141 -313 160
-472 l7 -53 -245 0 -246 0 -5 58 c-23 215 -50 356 -95 485 l-20 57 202 -2 201
-3 41 -70z m-2272 -727 c8 -127 31 -266 64 -378 14 -47 28 -93 30 -103 5 -16
-7 -17 -198 -15 l-204 3 -32 54 c-76 128 -138 320 -150 464 l-6 77 245 0 245
0 6 -102z m967 -198 l0 -300 -378 0 -379 0 -31 103 c-18 56 -37 125 -43 152
-13 62 -39 268 -39 312 l0 33 435 0 435 0 0 -300z m867 193 c-6 -117 -43 -307
-80 -418 l-24 -70 -326 -3 -327 -2 0 300 0 300 381 0 382 0 -6 -107z m598 40
c-15 -150 -61 -303 -133 -438 l-48 -90 -206 -3 -206 -2 24 74 c34 110 62 256
75 400 l12 126 245 0 244 0 -7 -67z m-2270 -678 c80 -157 141 -245 247 -352
39 -40 66 -73 60 -73 -22 0 -168 62 -263 112 -53 27 -132 76 -175 109 -79 59
-254 225 -254 241 0 5 82 7 183 6 l182 -3 20 -40z m805 -231 l0 -277 -61 7
c-174 20 -357 129 -487 290 -59 72 -152 221 -152 243 0 11 64 13 350 13 l350
0 0 -276z m710 268 c0 -16 -87 -160 -132 -219 -117 -152 -287 -270 -440 -307
l-28 -6 0 270 0 270 300 0 c165 0 300 -3 300 -8z m480 -3 c0 -16 -106 -124
-185 -189 -130 -106 -278 -192 -423 -244 -40 -14 -76 -26 -79 -26 -3 0 29 36
71 80 81 85 189 240 232 334 l25 56 180 0 c121 0 179 -3 179 -11z"/>
<path d="M1081 4348 l-245 -70 -18 22 c-17 21 -21 21 -68 10 -47 -11 -50 -13
-44 -38 16 -64 47 -133 67 -147 35 -25 81 -18 290 42 165 47 200 54 208 42 5
-8 9 -19 9 -25 0 -5 -109 -41 -242 -79 -134 -37 -247 -71 -251 -75 -8 -7 25
-145 37 -157 5 -5 608 166 618 176 11 10 -93 371 -106 370 -6 0 -121 -32 -255
-71z"/>
<path d="M1135 3901 c-173 -66 -214 -93 -235 -156 -15 -45 -7 -94 26 -162 40
-83 107 -113 197 -86 29 8 56 19 61 23 8 8 -27 113 -45 134 -4 4 -31 -1 -61
-12 -59 -22 -78 -20 -78 9 0 15 15 27 56 45 93 41 93 41 136 -61 43 -104 44
-104 142 -52 77 41 106 82 106 152 0 66 -41 151 -89 182 -48 33 -99 29 -216
-16z m213 -123 c3 -23 -3 -30 -37 -47 -50 -26 -67 -26 -81 -2 -17 33 -11 48
28 64 55 23 86 18 90 -15z"/>
<path d="M1438 3623 l-47 -26 20 -38 c10 -21 19 -40 19 -43 0 -2 -82 -48 -182
-102 -101 -53 -184 -98 -186 -99 -1 -1 15 -34 36 -73 l38 -71 69 38 c39 20
123 65 187 100 l118 62 20 -33 c11 -18 21 -37 23 -42 2 -5 24 3 50 19 27 15
47 30 45 34 -10 22 -160 301 -161 301 -1 0 -23 -12 -49 -27z"/>
<path d="M1600 3285 c-19 -13 -117 -77 -217 -142 l-182 -119 45 -67 44 -67 82
55 c74 49 83 53 94 37 23 -30 16 -40 -61 -89 -41 -27 -75 -52 -75 -57 0 -14
74 -126 83 -126 5 0 411 260 445 285 2 1 -73 122 -83 133 -2 2 -38 -20 -80
-47 -43 -28 -80 -51 -84 -51 -11 0 -32 40 -26 50 3 5 39 30 80 55 l74 47 -39
61 c-21 34 -45 63 -52 64 -7 1 -29 -9 -48 -22z"/>
<path d="M1758 2890 c-62 -41 -82 -73 -75 -121 5 -38 5 -38 -16 -24 -38 27
-69 18 -142 -40 -39 -31 -71 -61 -72 -68 -2 -7 17 -34 41 -61 l43 -49 73 56
c75 59 78 61 104 51 29 -11 16 -31 -59 -90 -41 -32 -75 -63 -75 -69 0 -5 23
-35 49 -65 46 -52 50 -54 68 -39 10 9 102 85 206 168 l187 152 -22 32 c-12 18
-59 69 -104 115 -74 75 -84 82 -121 82 -27 0 -54 -9 -85 -30z m156 -123 c9
-15 4 -24 -34 -58 -56 -48 -93 -50 -98 -4 -7 62 101 112 132 62z"/>
<path d="M2044 2581 c-79 -36 -123 -117 -93 -172 10 -20 10 -20 -21 -4 -18 9
-42 14 -54 11 -11 -3 -52 -35 -91 -70 l-70 -65 52 -52 51 -52 68 61 c41 38 76
62 90 62 48 0 38 -24 -39 -95 l-76 -71 58 -58 57 -57 193 187 192 186 -86 85
c-74 73 -147 123 -180 123 -5 0 -28 -9 -51 -19z m124 -123 c20 -20 14 -36 -29
-76 -55 -49 -83 -49 -87 -1 -3 30 2 41 28 63 34 28 68 34 88 14z"/>
<path d="M2312 2043 c-152 -196 -161 -209 -144 -224 15 -15 327 -259 423 -332
l36 -27 76 97 c41 54 114 147 161 208 47 60 86 113 86 116 0 8 -120 102 -124
98 -2 -2 -60 -77 -130 -166 -70 -90 -131 -163 -135 -163 -4 0 -15 8 -24 18
-15 17 -8 28 112 182 71 91 127 168 125 172 -3 4 -31 28 -63 52 l-58 45 -128
-164 c-70 -91 -131 -165 -134 -165 -4 0 -16 6 -27 14 -23 18 -32 3 120 196 98
125 116 153 106 165 -13 16 -104 85 -112 85 -2 0 -77 -93 -166 -207z"/>
<path d="M2841 1644 c-78 -125 -139 -229 -137 -232 3 -2 33 -22 67 -43 l62
-38 58 92 c32 51 64 92 71 92 28 0 19 -48 -21 -115 -23 -38 -41 -78 -41 -90 0
-14 18 -32 62 -60 l62 -39 11 32 c6 18 24 51 39 75 53 84 53 117 -1 174 l-26
27 51 -6 c79 -9 94 -1 145 77 26 38 53 70 60 70 6 0 -19 20 -57 44 -38 24 -74
42 -80 40 -6 -2 -31 -35 -56 -72 -35 -52 -51 -68 -72 -70 -16 -2 -28 0 -28 5
0 4 24 46 54 93 l54 85 -56 35 c-31 20 -62 39 -69 43 -7 5 -61 -73 -152 -219z"/>
<path d="M7183 1640 l-63 -29 26 -68 c15 -37 41 -108 59 -158 18 -49 38 -103
45 -120 18 -46 1 -23 -105 150 -54 88 -98 161 -99 161 0 1 -31 -11 -67 -28
l-66 -29 160 -237 161 -236 -26 -19 c-26 -19 -26 -20 -10 -53 18 -39 22 -39
122 11 99 50 119 82 100 157 -22 85 -164 528 -169 527 -3 0 -34 -13 -68 -29z"/>
<path d="M3323 1604 c-38 -19 -65 -58 -131 -190 -62 -123 -73 -163 -61 -208
20 -71 136 -142 219 -134 78 8 102 33 180 189 79 158 84 188 45 255 -19 32
-40 50 -87 73 -68 34 -116 39 -165 15z m145 -111 c2 -12 -30 -87 -73 -172 -72
-143 -78 -151 -106 -151 -24 0 -29 4 -29 26 0 14 34 93 76 175 71 141 78 150
102 147 19 -2 28 -10 30 -25z"/>
<path d="M3685 1447 c-8 -20 -40 -102 -71 -184 -67 -178 -78 -197 -108 -189
-18 4 -24 0 -34 -27 -16 -45 -16 -46 16 -59 62 -25 117 -35 144 -26 37 13 54
43 119 208 47 122 59 144 75 142 10 -2 23 -7 28 -12 5 -5 -25 -95 -66 -204
l-75 -195 66 -26 c37 -14 71 -25 76 -25 10 0 201 487 194 495 -3 2 -74 31
-159 63 -85 33 -163 63 -173 67 -13 6 -20 -1 -32 -28z"/>
<path d="M6643 1427 c-34 -12 -64 -25 -67 -28 -3 -3 1 -27 10 -53 9 -26 15
-48 13 -50 -2 -1 -34 -17 -72 -35 -99 -48 -119 -101 -82 -227 43 -150 97 -194
208 -173 29 5 59 12 69 15 12 4 20 -7 33 -46 9 -27 19 -50 21 -50 12 0 140 43
147 49 4 4 1 27 -8 50 -8 24 -15 46 -15 50 0 3 22 14 50 24 96 34 139 95 125
180 -14 82 -56 175 -93 208 -34 30 -38 31 -106 26 -39 -3 -81 -9 -92 -12 -19
-6 -24 0 -39 44 -9 28 -22 51 -28 50 -7 0 -40 -10 -74 -22z m226 -183 c41 -53
66 -185 39 -212 -7 -7 -21 -12 -33 -12 -17 0 -25 16 -53 108 -18 59 -33 115
-32 125 0 28 54 22 79 -9z m-191 -141 c40 -133 41 -143 4 -143 -38 0 -55 21
-81 99 -25 77 -27 114 -5 135 35 35 48 21 82 -91z"/>
<path d="M6290 1337 l-55 -12 0 -70 c0 -38 4 -95 8 -126 7 -46 5 -59 -8 -73
-9 -9 -20 -16 -24 -16 -4 0 -17 60 -29 132 -13 73 -25 134 -27 136 -2 2 -39
-2 -82 -10 -78 -14 -78 -14 -75 -44 4 -41 104 -608 108 -613 4 -5 148 21 156
28 4 3 -3 66 -16 139 -22 127 -23 132 -5 132 28 0 46 -36 63 -129 17 -93 38
-134 64 -127 9 2 35 7 57 11 75 12 75 12 60 49 -8 18 -20 69 -28 114 -17 98
-35 127 -87 143 l-40 12 30 19 c51 31 56 53 35 182 -9 63 -14 119 -11 125 9
14 -20 13 -94 -2z"/>
<path d="M4092 1280 c-32 -20 -57 -63 -68 -119 -6 -27 -4 -29 61 -45 36 -9 70
-14 74 -11 5 2 12 20 15 38 3 19 13 42 21 53 13 17 15 18 30 3 14 -14 15 -23
6 -56 -6 -23 -17 -45 -24 -51 -6 -5 -48 -15 -92 -21 -43 -6 -89 -18 -102 -26
-24 -16 -63 -125 -63 -177 0 -64 98 -115 162 -84 29 15 30 15 25 -3 -4 -17 6
-22 71 -40 42 -11 76 -20 77 -18 11 16 99 376 103 419 5 58 4 59 -35 96 -66
63 -193 83 -261 42z m108 -284 c0 -13 -9 -54 -20 -90 -20 -62 -23 -66 -50 -66
-28 0 -30 2 -30 40 0 52 21 103 51 124 33 23 49 20 49 -8z"/>
<path d="M4599 1189 c-5 -20 -66 -525 -64 -527 6 -6 146 -24 151 -20 4 5 54
376 54 406 0 7 13 12 30 12 37 0 36 16 5 -230 -13 -107 -23 -195 -22 -196 4
-4 151 -23 155 -20 4 5 62 474 62 507 l0 25 -157 18 c-87 10 -170 20 -185 23
-16 3 -28 4 -29 2z"/>
<path d="M5745 1131 l-59 -6 -53 -140 -52 -140 0 81 c-1 45 -4 109 -7 143 l-7
61 -70 0 -70 0 7 -52 c3 -29 6 -151 6 -270 l0 -218 69 0 c44 0 72 5 79 13 6 7
34 74 61 148 50 133 50 134 51 83 0 -28 3 -92 6 -142 l7 -92 68 0 67 0 -5 258
c-2 141 -6 263 -8 270 -3 6 -10 11 -17 10 -7 -1 -40 -4 -73 -7z"/>
</g>
</svg>
